<svg xmlns="http://www.w3.org/2000/svg" width="400" height="96" viewBox="0 0 400 96" fill="none"><path d="M32.8876 44.5243H63.6701C63.8682 45.3847 64.0121 46.2573 64.101 47.1368C64.2164 48.1523 64.274 49.174 64.2734 50.1965C64.2999 54.1786 63.678 58.1372 62.4333 61.9084C61.2106 65.5668 59.2402 68.9141 56.6543 71.7252C53.8241 74.8075 50.3861 77.2335 46.5701 78.8409C42.6514 80.5235 38.1782 81.3649 33.1505 81.3649C28.735 81.3932 24.3567 80.5358 20.2608 78.8409C16.337 77.239 12.7604 74.8553 9.73712 71.827C6.728 68.7848 4.31554 65.1771 2.63081 61.2C0.853368 56.9324 -0.0418209 52.332 0.00202337 47.6903C-0.0484874 43.0765 0.847223 38.5036 2.63081 34.2691C4.29878 30.255 6.7126 26.6137 9.73712 23.549C12.7606 20.5177 16.3369 18.1297 20.2608 16.5219C24.3575 14.8305 28.7355 13.9747 33.1505 14.0024C38.2356 14.0024 42.7663 14.9027 46.7425 16.7034C50.6609 18.4242 54.1844 20.9705 57.0852 24.1778L48.9274 32.3784C46.9991 30.2428 44.6735 28.5264 42.0883 27.3305C39.5744 26.1291 36.5578 25.5283 33.0384 25.5283C30.2418 25.516 27.4701 26.0681 24.8806 27.1534C22.3594 28.141 20.0614 29.6479 18.1276 31.5813C16.1441 33.585 14.5653 35.9716 13.482 38.6041C12.3354 41.4909 11.7681 44.5859 11.8143 47.7035C11.7745 50.8493 12.3413 53.972 13.482 56.8916C14.5816 59.4887 16.159 61.8433 18.1276 63.8258C20.1299 65.735 22.4589 67.2467 24.9969 68.2847C27.6281 69.3184 30.4241 69.838 33.2409 69.8167C36.5736 69.8167 39.3791 69.337 41.6573 68.3776C43.8414 67.4543 45.8535 66.1495 47.6044 64.5209C48.8291 63.3655 49.8395 61.9912 50.5865 60.4649C51.4918 58.7015 52.1697 56.8245 52.6034 54.8812H32.8876V44.5243Z" fill="#149DD4"></path><path d="M105.341 71.0949C109.123 70.557 112.72 69.1182 115.829 66.8998C105.224 74.5516 90.447 72.1487 82.8015 61.5352C80.3199 58.0783 78.8118 54.0186 78.4346 49.78C78.0575 45.5414 78.8251 41.2792 80.6574 37.4385C81.1907 36.3113 81.2803 35.0247 80.9084 33.8345C80.5365 32.6443 79.7304 31.6376 78.6502 31.0145C77.5701 30.3914 76.2951 30.1975 75.0785 30.4714C73.862 30.7453 72.7931 31.4669 72.0843 32.4928C71.9522 32.6035 71.8424 32.7382 71.7607 32.8899C74.3303 27.6045 78.2365 23.0822 83.0921 19.7712C87.9477 16.4603 93.5843 14.4756 99.4431 14.0139C99.6956 13.986 99.9511 14.0182 100.189 14.1077C101.502 14.2009 102.725 14.8102 103.589 15.8026C104.454 16.7949 104.891 18.0894 104.804 19.4028C104.727 20.5957 104.219 21.7199 103.374 22.5655C102.529 23.4111 101.405 23.9204 100.212 23.9982C87.1835 25.0052 77.4441 36.3847 78.443 49.4245C79.3755 61.5562 89.3276 70.9784 101.472 71.2817C102.281 71.3052 103.091 71.2817 103.898 71.2114L104.551 71.1418C104.598 71.1454 104.647 71.1374 104.691 71.1184L105.249 71.048C105.258 71.0638 105.272 71.0767 105.288 71.0851C105.304 71.0934 105.323 71.0968 105.341 71.0949Z" fill="url(#paint0_linear_1775_1315)"></path><path d="M71.0789 34.3558C70.939 34.706 70.7765 35.0554 70.6592 35.4072C73.1079 29.0904 77.405 23.6591 82.9892 19.8229C83.1993 19.6753 83.4374 19.5721 83.6888 19.5197C84.8148 18.9798 86.1031 18.8844 87.2964 19.2523C88.4898 19.6203 89.5005 20.4246 90.1271 21.5048C90.7536 22.5851 90.9498 23.8618 90.6766 25.0803C90.4034 26.2988 89.6809 27.3696 88.6531 28.0789C84.5852 30.8802 81.4905 34.8787 79.7989 39.5191C78.1074 44.1595 77.9028 49.2115 79.2137 53.9735C77.675 48.4598 78.1886 42.5752 80.659 37.4114C81.1947 36.2804 81.2846 34.989 80.9108 33.7947C80.5369 32.6004 79.7268 31.5908 78.6418 30.967C77.5568 30.3433 76.2767 30.1512 75.0564 30.4291C73.8362 30.707 72.7654 31.4345 72.0576 32.4665C71.9376 32.5797 71.8292 32.7046 71.7341 32.8394C71.5246 33.2591 71.3378 33.6562 71.1517 34.076C71.136 34.1713 71.1117 34.265 71.0789 34.3558Z" fill="url(#paint1_linear_1775_1315)"></path><path d="M135.783 47.6517V48.3286C135.787 48.5543 135.779 48.78 135.759 49.0048C135.741 49.2299 135.733 49.4558 135.737 49.6817C135.734 49.9078 135.718 50.1335 135.69 50.3579C135.685 50.5065 135.669 50.6546 135.643 50.8011V50.8941C135.643 50.9879 135.62 51.0558 135.62 51.1513C135.597 51.3373 135.573 51.5007 135.55 51.6875V51.7109C135.526 51.9204 135.503 52.1072 135.48 52.3175L135.457 52.5043L135.387 52.9937C135.34 53.3439 135.27 53.7167 135.201 54.0669L135.154 54.3467L135.037 54.9064C134.944 55.3496 134.828 55.7694 134.714 56.2126C134.668 56.4229 134.597 56.6097 134.552 56.8192C134.507 57.0286 134.412 57.2858 134.342 57.4961C134.29 57.686 134.228 57.8729 134.156 58.0558C134.085 58.2426 134.016 58.4755 133.945 58.6624C133.875 58.8492 133.806 59.0352 133.736 59.222C133.712 59.2455 133.712 59.2924 133.689 59.3385C133.55 59.7122 133.41 60.085 133.247 60.4813C133.176 60.6681 133.085 60.855 133.014 61.0418C132.92 61.2747 132.803 61.485 132.71 61.7179C132.641 61.8797 132.549 62.0681 132.477 62.2315C132.406 62.3949 132.291 62.6043 132.198 62.8146C132.105 63.0249 131.988 63.2344 131.874 63.4439L131.664 63.841L131.547 64.0739C131.454 64.2138 131.385 64.3772 131.291 64.5171C131.174 64.7039 131.081 64.8908 130.967 65.0768C130.853 65.2628 130.781 65.3801 130.688 65.52L130.571 65.7068C130.478 65.8467 130.384 65.9866 130.291 66.15C130.268 66.1735 130.244 66.2204 130.221 66.2438L129.942 66.6636C129.827 66.8413 129.703 67.0125 129.569 67.1764L129.219 67.6665C129.102 67.8282 128.962 68.0167 128.822 68.2027C128.683 68.3887 128.566 68.5262 128.426 68.6928V68.7163C128.287 68.878 128.171 69.0398 128.03 69.2015L127.611 69.6917C127.471 69.8534 127.308 70.0152 127.168 70.1818C127.028 70.3484 126.911 70.4616 126.795 70.6015L126.655 70.7633C126.538 70.8797 126.445 70.9962 126.331 71.1135C126.191 71.2752 126.028 71.416 125.888 71.5567L125.865 71.5793L125.469 71.9764C125.282 72.1382 125.119 72.3258 124.933 72.4892C124.653 72.7456 124.373 73.0028 124.093 73.2357L123.884 73.4225L123.535 73.7024C123.211 73.9822 122.858 74.2386 122.532 74.4958L122.066 74.8452L122.019 74.8921C121.67 75.1485 121.32 75.3822 120.967 75.6151L120.477 75.9386L119.895 76.3115C119.708 76.4288 119.522 76.5452 119.335 76.635C119.149 76.7248 118.963 76.8453 118.776 76.9585C118.59 77.0717 118.426 77.168 118.24 77.2618L118.124 77.3313L117.588 77.5885C117.215 77.7746 116.818 77.9848 116.422 78.1717C116.213 78.2647 116.026 78.3577 115.84 78.4515C115.654 78.5453 115.397 78.6383 115.187 78.7313C114.978 78.8244 114.813 78.8931 114.627 78.9643C114.441 79.0354 114.231 79.126 114.022 79.198C113.812 79.27 113.602 79.3598 113.415 79.4309C113.159 79.5248 112.93 79.6178 112.669 79.6873C112.409 79.7569 112.157 79.8491 111.9 79.9211C111.271 80.1079 110.618 80.2939 109.966 80.4338L109.569 80.5276C109.336 80.5737 109.08 80.6441 108.824 80.6894L108.381 80.7824L107.93 80.8924C107.673 80.9393 107.417 80.9862 107.184 81.0097L106.788 81.0558L106.392 81.1027L105.972 81.1496L105.552 81.1957C105.273 81.2191 104.993 81.2426 104.737 81.266C86.2066 82.6887 69.9588 68.7858 68.5159 50.2648C68.4456 49.3752 68.4221 48.492 68.4221 47.629V46.6488C68.4176 46.4929 68.4255 46.3368 68.4456 46.1821L68.5159 45.0628C68.5159 44.9463 68.5394 44.8291 68.5394 44.7126C68.562 44.5266 68.562 44.3398 68.5855 44.1529C68.609 44.013 68.609 43.8731 68.6324 43.7332C68.6605 43.5712 68.6759 43.4074 68.6785 43.2431L68.7254 42.8233C68.7254 42.7764 68.7489 42.7303 68.7489 42.6615C68.7761 42.5311 68.7917 42.3985 68.7958 42.2652L68.8888 41.7751L68.9584 41.3554C68.9818 41.1936 69.0287 41.0319 69.0522 40.8653C69.0756 40.6986 69.1217 40.562 69.1452 40.3986C69.1686 40.2352 69.1921 40.1657 69.2147 40.0492L69.2851 39.699L69.3781 39.2792C69.4477 39.0463 69.4946 38.8126 69.5649 38.5562C69.6047 38.3809 69.6588 38.2091 69.7267 38.0426C69.7736 37.9027 69.7971 37.7862 69.8432 37.6463C69.8893 37.5064 69.937 37.343 69.9831 37.2031C70.0292 37.0632 70.0769 36.8998 70.123 36.7599L70.1934 36.5496C70.216 36.4801 70.2629 36.3636 70.2864 36.2932C70.3098 36.2471 70.3098 36.2237 70.3333 36.1768C70.4263 35.9204 70.5193 35.6867 70.6123 35.4303C70.7522 35.0574 70.9156 34.7072 71.0555 34.3336C71.079 34.264 71.1251 34.1718 71.1486 34.1006C71.3354 33.6809 71.5214 33.2611 71.7317 32.864C71.8285 32.7158 71.9462 32.5824 72.0811 32.4677C72.786 31.4325 73.8562 30.702 75.077 30.4226C76.2979 30.1433 77.5793 30.3357 78.6642 30.9613C79.7492 31.5869 80.5576 32.5995 80.9274 33.796C81.2973 34.9926 81.2011 36.2847 80.6583 37.4134C75.0194 49.2151 79.9829 63.3508 91.7541 68.9961C95.5856 70.836 99.8427 71.6077 104.076 71.2299C108.31 70.8521 112.363 69.3388 115.808 66.8496C115.97 66.7331 116.111 66.6401 116.251 66.5261L116.274 66.5026L116.344 66.4557L116.367 66.4323L116.717 66.1524L116.74 66.129L117.09 65.8492L117.44 65.5693L117.649 65.4076C117.74 65.3361 117.826 65.2582 117.905 65.1746C118.022 65.0582 118.162 64.9409 118.278 64.8244C118.395 64.708 118.489 64.6376 118.582 64.5446L118.791 64.3343C118.978 64.1483 119.187 63.938 119.374 63.7285C119.467 63.6347 119.536 63.5417 119.631 63.4479L119.724 63.3549C119.84 63.2384 119.934 63.122 120.047 62.982C120.466 62.5154 120.839 62.0018 121.213 61.5125C121.445 61.189 121.678 60.8356 121.911 60.4854L121.982 60.3462C122.075 60.2055 122.143 60.0656 122.238 59.9257C124.194 56.7233 125.361 53.1013 125.641 49.359C125.647 49.2067 125.683 49.0571 125.747 48.919C125.812 48.7809 125.903 48.6571 126.016 48.5548C126.13 48.4525 126.262 48.3739 126.406 48.3235C126.55 48.273 126.702 48.2519 126.854 48.2612C127.006 48.2705 127.155 48.3101 127.292 48.3777C127.428 48.4453 127.55 48.5396 127.65 48.6549C127.75 48.7702 127.825 48.9042 127.872 49.0492C127.92 49.1941 127.937 49.347 127.925 49.4989V49.5224C127.615 53.7242 126.296 57.7892 124.079 61.3718C123.917 61.629 123.917 61.9557 124.079 62.0487C124.241 62.1417 124.546 62.0487 124.708 61.7689C130.419 52.6014 130.07 40.8677 123.776 32.0739C123.688 31.9514 123.624 31.8127 123.588 31.6657C123.553 31.5186 123.547 31.366 123.571 31.2166C123.595 31.0672 123.648 30.924 123.727 30.7951C123.806 30.6661 123.91 30.554 124.032 30.4652C124.154 30.3764 124.293 30.3125 124.44 30.2773C124.587 30.242 124.74 30.2361 124.889 30.2598C125.039 30.2836 125.182 30.3365 125.311 30.4156C125.44 30.4947 125.552 30.5984 125.641 30.7208C128.381 34.5599 130.146 39.0081 130.784 43.6815C131.421 48.355 130.912 53.1134 129.3 57.5463C129.235 57.6644 129.217 57.8034 129.252 57.934C129.287 58.0647 129.371 58.1768 129.486 58.2467C129.697 58.3397 129.972 58.1763 130.092 57.873C132.327 51.7786 132.516 45.1225 130.632 38.9108C128.749 32.6991 124.894 27.2694 119.651 23.4426C119.246 23.1423 118.976 22.6933 118.902 22.1945C118.828 21.6956 118.955 21.1877 119.255 20.7825C119.556 20.3773 120.005 20.108 120.503 20.0339C121.002 19.9597 121.51 20.0867 121.915 20.387C125.852 23.2599 129.12 26.9515 131.493 31.2079C133.867 35.4643 135.29 40.1844 135.665 45.0434C135.737 45.9023 135.783 46.7887 135.783 47.6517Z" fill="url(#paint2_linear_1775_1315)"></path><path d="M156.86 79.9203V26.9575H139.32V15.4448H186.237V26.9575H168.702V79.9203H156.86Z" fill="#27AB88"></path><path d="M194.654 15.4288H217.542C220.474 15.3872 223.388 15.9068 226.135 16.9609C228.584 17.9018 230.822 19.3416 232.716 21.194C234.597 23.0057 236.069 25.2202 237.025 27.681C238.041 30.255 238.548 33.0111 238.516 35.7886C238.527 37.8782 238.171 39.9527 237.465 41.9124C236.765 43.7677 235.788 45.4993 234.569 47.0444C233.305 48.5783 231.857 49.9412 230.259 51.1004C228.655 52.2252 226.917 53.133 225.088 53.8015L225.002 54.4347L241.839 79.2047V79.922H228.247L212.021 55.6923H206.492V79.922H194.654V15.4288ZM217.456 44.5249C220.145 44.5249 222.337 43.6836 224.032 42.001C224.89 41.1907 225.569 40.2005 226.022 39.0974C226.476 37.9943 226.694 36.804 226.661 35.607C226.662 34.466 226.454 33.335 226.049 32.2728C225.703 31.1987 225.134 30.215 224.381 29.3902C223.574 28.5157 222.586 27.8393 221.489 27.4109C220.272 26.8461 218.946 26.5691 217.611 26.6006H206.492V44.5249H217.456Z" fill="#27AB88"></path><path d="M272.012 81.3644C268.571 81.4079 265.152 80.7969 261.928 79.5622C259.029 78.3582 256.423 76.514 254.296 74.1601C252.125 71.7021 250.456 68.8218 249.387 65.6895C248.166 62.0092 247.573 58.1399 247.633 54.2521V15.4277H259.471V54.9738C259.451 56.9835 259.717 58.9854 260.26 60.9161C260.737 62.6249 261.543 64.218 262.63 65.6009C263.702 66.9381 265.048 68.0148 266.573 68.7536C268.292 69.5029 270.145 69.871 272.012 69.834C273.907 69.8769 275.789 69.5088 277.536 68.7536C279.063 68.015 280.411 66.9383 281.484 65.6009C282.568 64.2165 283.372 62.6239 283.85 60.9161C284.393 58.9854 284.659 56.9835 284.638 54.9738V15.4277H296.481V54.2521C296.52 58.0182 295.926 61.763 294.727 65.322C293.689 68.4962 292.015 71.4119 289.814 73.8812C287.656 76.2603 285.023 78.1332 282.096 79.3719C278.903 80.7406 275.471 81.4189 272.012 81.3644Z" fill="#27AB88"></path><path d="M326.911 81.3659C324.296 81.3781 321.693 80.9825 319.193 80.1924C316.764 79.4263 314.48 78.2387 312.44 76.6811C310.374 75.096 308.568 73.181 307.092 71.0089C305.502 68.5725 304.289 65.8971 303.498 63.0784L314.634 58.5751C315.35 61.6204 316.837 64.4172 318.943 66.6827C320.992 68.7875 323.681 69.8384 327.01 69.8354C328.195 69.8441 329.375 69.6952 330.523 69.3927C331.609 69.0707 332.643 68.5858 333.591 67.9536C334.494 67.3274 335.245 66.4955 335.785 65.5226C336.325 64.5006 336.597 63.3513 336.573 62.1884C336.589 61.0757 336.379 59.9718 335.957 58.9471C335.474 57.8873 334.753 56.9601 333.854 56.2416C332.707 55.2644 331.439 54.4471 330.083 53.8107C328.23 52.8887 326.326 52.077 324.382 51.3797L320.503 49.9362C318.71 49.2925 316.978 48.4786 315.332 47.5053C313.635 46.4824 312.073 45.2414 310.682 43.8123C309.255 42.337 308.07 40.6338 307.174 38.7689C306.282 36.6689 305.841 34.3958 305.881 32.1048C305.861 29.6867 306.339 27.2916 307.286 25.0777C308.258 22.8873 309.661 20.9274 311.406 19.3213C313.271 17.6085 315.447 16.2917 317.81 15.4469C320.48 14.4591 323.302 13.9717 326.14 14.0078C328.915 13.9341 331.68 14.3844 334.298 15.3362C336.439 16.0654 338.431 17.1959 340.172 18.6704C341.726 19.9013 343.062 21.3994 344.119 23.0984C345.024 24.5362 345.76 26.079 346.313 27.6946L335.875 32.1978C335.232 30.3076 334.112 28.6267 332.63 27.3271C331.107 25.8895 329.003 25.1692 326.317 25.1662C323.731 25.1662 321.596 25.7965 319.913 27.057C319.125 27.5619 318.478 28.2668 318.032 29.1036C317.587 29.9404 317.359 30.881 317.37 31.8347C317.37 33.7565 318.189 35.4066 319.827 36.7852C321.464 38.1106 324.066 39.4021 327.631 40.6596L331.578 41.988C333.946 42.8238 336.236 43.879 338.418 45.1407C340.416 46.201 342.224 47.6025 343.766 49.2853C345.272 50.8817 346.437 52.7834 347.187 54.8689C348.046 57.1355 348.463 59.5531 348.416 61.9847C348.416 65.3499 347.743 68.2635 346.399 70.7255C345.172 73.0555 343.466 75.0833 341.4 76.6678C339.311 78.2514 336.964 79.4404 334.47 80.1791C332.02 80.9489 329.474 81.3486 326.911 81.3659Z" fill="#27AB88"></path><path d="M370.618 79.9203V26.9575H353.078V15.4448H400V26.9575H382.447V79.9203H370.618Z" fill="#27AB88"></path><defs><linearGradient id="paint0_linear_1775_1315" x1="143.334" y1="43.7211" x2="57.1039" y2="41.6319" gradientUnits="userSpaceOnUse"><stop stop-color="#47C6F3"></stop><stop offset="0.91" stop-color="#139CD8"></stop></linearGradient><linearGradient id="paint1_linear_1775_1315" x1="65.9828" y1="29.7304" x2="146.473" y2="61.7378" gradientUnits="userSpaceOnUse"><stop stop-color="#47C6F3"></stop><stop offset="0.91" stop-color="#139CD8"></stop></linearGradient><linearGradient id="paint2_linear_1775_1315" x1="161.401" y1="50.687" x2="55.822" y2="50.687" gradientUnits="userSpaceOnUse"><stop stop-color="#2FB262"></stop><stop offset="0.87" stop-color="#139CD8"></stop></linearGradient></defs></svg>