<svg xmlns="http://www.w3.org/2000/svg" width="290" height="101" viewBox="0 0 290 101" fill="none"><path fill-rule="evenodd" clip-rule="evenodd" d="M0.609863 73.2856V35.0043C0.618056 33.8261 1.10714 32.6988 1.9705 31.8682C2.38525 31.4372 2.88919 31.0957 3.44948 30.8659C4.00976 30.636 4.6138 30.5231 5.2222 30.5345H9.65004V46.4441H27.7073V30.5345H36.834V73.2856H27.7073V54.2733H9.6558V73.2856H0.609863Z" fill="#0FB3D0"></path><path fill-rule="evenodd" clip-rule="evenodd" d="M50.2618 65.5958H56.0791C60.2648 65.5958 63.3666 64.5244 65.3442 62.3704C67.2352 60.3726 68.2269 56.8905 68.2269 51.9128C68.2269 47.0969 67.339 43.6259 65.5114 41.3101C63.7817 39.078 61.0547 37.9284 57.2495 37.9284H50.2618V65.5958ZM41.3312 73.2856V35.0043C41.3211 34.4213 41.434 33.8425 41.663 33.3033C41.892 32.7641 42.2323 32.2757 42.663 31.8681C43.0943 31.4362 43.6126 31.0944 44.1857 30.8641C44.7589 30.6337 45.3749 30.5196 45.9954 30.5288H57.238C63.9951 30.5288 69.1263 32.3313 72.4875 35.7576C75.8718 39.4407 77.5265 44.8201 77.5265 51.9407C77.5888 55.4531 76.9689 58.9456 75.6989 62.2365C74.3152 65.4117 72.5048 67.8168 70.2563 69.4909C68.4694 70.8745 66.4094 71.8904 64.2026 72.4764C62.0925 73.0847 59.0137 73.3191 54.7761 73.3191L41.3312 73.2856Z" fill="#0FB3D0"></path><path fill-rule="evenodd" clip-rule="evenodd" d="M90.7118 65.5956H101.505C103.88 65.5956 105.737 65.1883 107.051 64.2284C108.204 63.3858 108.821 61.9963 108.821 59.9762C108.821 58.0398 108.21 56.5666 107.051 55.6403C105.898 54.8088 104.053 54.4126 101.401 54.4126H90.7349L90.7118 65.5956ZM90.7118 47.0688H101.09C103.355 47.0688 104.929 46.7005 106.007 45.9528C107.086 45.205 107.547 44.0554 107.547 42.4762C107.547 40.897 107.022 39.686 106.007 38.9996C105.125 38.3523 103.419 37.9561 100.992 37.9561H90.7118V47.0688ZM81.983 73.2965V35.0041C81.9696 34.4192 82.0827 33.8381 82.315 33.298C82.5474 32.7579 82.8938 32.2708 83.3321 31.8679C83.7461 31.4417 84.2466 31.1028 84.8021 30.8724C85.3577 30.6419 85.9563 30.5249 86.5607 30.5287H102.796C107.305 30.5287 110.81 31.4606 113.174 33.3188C115.538 35.1771 116.748 37.9728 116.748 41.3545C116.828 43.27 116.34 45.1677 115.342 46.8233C114.381 48.2782 113.014 49.4393 111.398 50.1715C113.445 50.9859 115.214 52.3391 116.506 54.0778C117.607 55.6793 118.19 57.7496 118.19 60.3333C118.19 64.4405 116.829 67.6659 114.079 70.0041C111.237 72.2362 107.259 73.3523 102.145 73.3523L81.983 73.2965Z" fill="#5A5A5D"></path><path fill-rule="evenodd" clip-rule="evenodd" d="M188.026 73.2853H183.414C182.235 73.3301 181.083 72.93 180.203 72.1693C179.787 71.7682 179.462 71.2877 179.248 70.7583C179.035 70.2289 178.938 69.6622 178.963 69.0945V51.3211C178.963 49.3289 178.335 47.8724 177.049 46.9628C175.82 46.0874 174.332 45.6178 172.806 45.6235C171.293 45.6041 169.817 46.0756 168.614 46.9628C167.409 47.8724 166.81 49.3289 166.81 51.3211V73.2853H157.585V53.0342C157.585 47.4204 159.159 43.6536 162.197 41.7507C165.275 39.8261 168.838 38.7532 172.5 38.6481C176.234 38.6198 179.903 39.585 183.108 41.4382C186.326 43.4193 187.998 47.2307 187.998 53.0231L188.026 73.2853Z" fill="#5A5A5D"></path><path fill-rule="evenodd" clip-rule="evenodd" d="M144.307 55.9251C142.604 56.6311 140.828 57.1605 139.009 57.5044L135.913 58.1461C134.287 58.5814 133.071 59.1171 132.39 59.7812C131.804 60.5806 131.475 61.53 131.445 62.51C131.414 63.0644 131.504 63.6188 131.71 64.1371C131.915 64.6555 132.232 65.1259 132.638 65.5178C133.463 66.2153 134.633 66.5278 136.19 66.5278C138.698 66.5278 140.698 65.8805 142.111 64.5245C143.523 63.1684 144.302 61.3492 144.302 59.0111L144.307 55.9251ZM146.492 70.2108C143.033 72.895 139.118 73.2856 134.846 73.2856C131.813 73.3372 128.834 72.505 126.296 70.8972C123.84 69.2231 122.658 66.5278 122.658 62.7722C122.658 59.2678 123.742 56.7789 125.991 55.2778C128.239 53.7767 131.041 52.7722 134.477 52.2644C135.005 52.2567 135.531 52.1949 136.046 52.0803C136.768 51.9312 137.5 51.8287 138.236 51.7733C142.191 51.2599 144.186 50.1439 144.186 48.5144C144.186 47.2421 143.471 46.4441 142.122 46.087C140.862 45.7197 139.553 45.5318 138.236 45.5289C137.091 45.5046 135.95 45.6804 134.869 46.0479C134.382 46.1761 133.93 46.4059 133.545 46.7211C133.16 47.0364 132.85 47.4294 132.638 47.8727H123.609C123.936 45.3348 125.287 43.0254 127.369 41.4497C129.83 39.5914 133.295 38.5925 137.815 38.5925C142.878 38.5925 146.671 39.4184 149.196 40.9977C150.427 41.7235 151.437 42.7518 152.123 43.978C152.81 45.2042 153.149 46.5846 153.105 47.9787V59.4073C153.105 62.7555 152.454 65.328 151.116 67.2198C149.45 68.7655 148.337 68.9832 146.504 70.1997" fill="#5A5A5D"></path><path fill-rule="evenodd" clip-rule="evenodd" d="M153.105 73.4252H149.07C148.532 73.4469 147.997 73.3513 147.503 73.1456C147.009 72.9398 146.569 72.6292 146.216 72.2366C145.478 71.3944 145.091 70.3158 145.132 69.2121V59.1172H153.105V73.4252Z" fill="#5A5A5D"></path><path fill-rule="evenodd" clip-rule="evenodd" d="M201.408 40.2388V51.8459L212.23 38.5926H222.901L210.84 52.895L223.057 73.2857H212.379L206.136 62.1249C204.838 59.8537 203.731 58.8883 202.792 59.2678C201.852 59.6473 201.408 60.1104 201.408 60.7578V73.2857H192.489V30.5066H197.101C197.679 30.4939 198.253 30.6013 198.784 30.8218C199.315 31.0423 199.791 31.3706 200.18 31.7845C200.965 32.532 201.414 33.5483 201.431 34.6138L201.408 40.2388Z" fill="#5A5A5D"></path><path fill-rule="evenodd" clip-rule="evenodd" d="M9.69047 83.4866V85.2221H8.39902C7.61279 85.217 6.8319 85.3474 6.09285 85.6071C5.41708 85.8469 4.79338 86.2065 4.25368 86.6674C3.73473 87.1377 3.3394 87.7212 3.1006 88.3694C2.7805 88.9912 2.61841 89.678 2.62783 90.3727C2.59528 91.3949 2.86318 92.4051 3.4004 93.2857C3.89498 93.9896 4.5448 94.5786 5.30299 95.01C6.01283 95.3762 6.80479 95.5678 7.60915 95.5681H9.6847V97.2812H7.60915C6.36335 97.3203 5.13291 97.0061 4.06919 96.3772C2.99704 95.8113 2.12379 94.9486 1.56123 93.8995C0.932124 92.8242 0.604197 91.6085 0.609937 90.3727C0.628846 89.2187 0.973784 88.0916 1.60735 87.1138C2.2141 86.0261 3.12004 85.1222 4.22485 84.5022C5.41582 83.815 6.78213 83.465 8.1684 83.4921L9.69047 83.4866Z" fill="#5A5A5D"></path><path fill-rule="evenodd" clip-rule="evenodd" d="M21.8321 97.3033H20.0103V91.9797C20.0325 91.4608 19.8831 90.9486 19.5836 90.5176C19.3098 90.1015 18.9058 89.7808 18.4305 89.6025C17.9291 89.3751 17.3815 89.2588 16.8278 89.2621C16.2149 89.2534 15.6132 89.4204 15.0981 89.742C14.5984 90.0212 14.1967 90.4391 13.945 90.9417C13.7075 91.4696 13.5877 92.0401 13.5934 92.6158C13.579 93.1848 13.7266 93.7465 14.02 94.2397C14.2728 94.7344 14.6749 95.1431 15.1731 95.4116C15.6749 95.7084 16.2511 95.8667 16.8393 95.8692C17.33 95.8535 17.8103 95.7279 18.2425 95.5023C18.6746 95.2767 19.0468 94.9572 19.3299 94.569V96.6002C18.9528 96.8657 18.542 97.0833 18.1077 97.2475C17.6556 97.4635 17.1518 97.558 16.649 97.521C15.9821 97.5037 15.3246 97.3635 14.7118 97.108C14.1095 96.8627 13.5659 96.4999 13.1148 96.0422C12.6636 95.5559 12.3185 94.9865 12.1001 94.3681C11.8463 93.7771 11.7132 93.1442 11.7081 92.5042C11.704 91.6325 11.9345 90.7748 12.3768 90.0154C12.7644 89.2755 13.3785 88.6694 14.1353 88.2799C14.9684 87.8429 15.9033 87.6201 16.8508 87.6326C17.5632 87.6377 18.2707 87.7468 18.9494 87.9562C19.5122 88.1651 20.0331 88.4672 20.4888 88.8491C20.9332 89.2423 21.275 89.7319 21.4862 90.2777C21.7152 90.8779 21.8324 91.5128 21.8321 92.1527V97.3033Z" fill="#5A5A5D"></path><path fill-rule="evenodd" clip-rule="evenodd" d="M26.514 97.3036H24.7095V90.8192C24.6856 90.2688 24.8387 89.7249 25.1476 89.2623C25.4846 88.7707 25.9295 88.3572 26.4506 88.0513C27.0054 87.7866 27.6137 87.6437 28.2321 87.6328C28.7971 87.646 29.3553 87.7556 29.881 87.9565C30.359 88.2154 30.7817 88.5601 31.1264 88.9721C31.4143 88.529 31.8289 88.1762 32.3198 87.9565C32.8548 87.7464 33.426 87.6366 34.0033 87.6328C34.476 87.6251 34.9453 87.7125 35.3813 87.8895C35.793 88.037 36.1668 88.2693 36.4767 88.5703C36.8145 88.8424 37.0679 89.1997 37.2089 89.6027C37.4036 89.98 37.5005 90.3975 37.4914 90.8192V97.3036H35.7387V91.2712C35.7549 90.7341 35.5753 90.2086 35.2313 89.7868C35.0671 89.6185 34.8685 89.4849 34.6482 89.3946C34.4279 89.3043 34.1907 89.2593 33.9514 89.2623C32.6311 89.2623 31.9797 90.0156 31.9797 91.5223V97.3036H30.1693V91.5223C30.1693 90.0156 29.5928 89.2623 28.2955 89.2623C28.0534 89.2569 27.8129 89.3009 27.5894 89.3912C27.3659 89.4816 27.1646 89.6163 26.9983 89.7868C26.6425 90.2012 26.4686 90.7341 26.514 91.2712V97.3036Z" fill="#5A5A5D"></path><path fill-rule="evenodd" clip-rule="evenodd" d="M51.1844 97.3035H49.3452V83.4866H51.1844V91.2991H51.8705C52.6315 91.2991 53.1273 91.1261 53.4271 90.5959L55.1568 87.8058H57.215L55.889 89.943C55.6666 90.328 55.4221 90.7006 55.1568 91.0591C54.9753 91.345 54.7048 91.5677 54.3842 91.6953C55.0237 91.7983 55.6087 92.1069 56.0446 92.5714C56.4586 93.1347 56.6619 93.8177 56.6212 94.5078V97.298H54.8051V94.6863C54.8192 94.4596 54.7867 94.2323 54.7095 94.0178C54.6323 93.8032 54.512 93.6056 54.3554 93.4363C54.2062 93.2879 54.0264 93.1715 53.8278 93.0946C53.6292 93.0177 53.4161 92.982 53.2023 92.9899H51.1844V97.3035Z" fill="#5A5A5D"></path><path fill-rule="evenodd" clip-rule="evenodd" d="M68.9302 90.6126L62.2654 94.1673L61.4928 92.8001L66.3819 90.1997C66.1253 89.8948 65.7972 89.6537 65.4248 89.4965C65.0298 89.333 64.6033 89.2531 64.1737 89.2622C63.7427 89.2518 63.3143 89.33 62.9168 89.4916C62.5193 89.6532 62.1617 89.8945 61.8676 90.1997C61.5486 90.5115 61.299 90.8834 61.1344 91.2922C60.9698 91.7011 60.8936 92.1384 60.9105 92.5769C60.9033 93.0067 60.9841 93.4337 61.1484 93.8331C61.3127 94.2325 61.5571 94.5965 61.8676 94.9039C62.1568 95.2158 62.5132 95.4624 62.9117 95.6263C63.3102 95.7902 63.741 95.8675 64.1737 95.8526C64.577 95.8813 64.982 95.8275 65.3625 95.6949C65.7429 95.5622 66.0902 95.3535 66.3819 95.0825C66.9683 94.4631 67.3428 93.6835 67.4543 92.8503L69.2819 93.0624C69.2286 93.8759 68.9541 94.6613 68.4863 95.3392C68.0495 96.0209 67.4217 96.5685 66.6759 96.9184C65.8984 97.2911 65.0414 97.4822 64.1737 97.4764C63.5006 97.4542 62.8353 97.3299 62.202 97.1081C61.6016 96.8672 61.0523 96.521 60.5819 96.0869C60.1185 95.6252 59.7297 95.0985 59.4288 94.5244C59.1827 93.8912 59.0577 93.2199 59.0598 92.5434C59.0534 91.8683 59.1786 91.1981 59.4288 90.568C59.6926 89.9697 60.0858 89.4331 60.5819 88.9943C61.0502 88.5449 61.5992 88.1818 62.202 87.9229C62.8357 87.7084 63.5023 87.599 64.1737 87.5992C65.1921 87.5815 66.1937 87.851 67.0564 88.3749C67.8909 88.9307 68.5448 89.7049 68.9417 90.607" fill="#5A5A5D"></path><path fill-rule="evenodd" clip-rule="evenodd" d="M61.4526 86.8515L63.188 84.4966H64.7735L66.555 86.8515H65.1367L63.9779 85.3448L62.796 86.8515H61.4526Z" fill="#5A5A5D"></path><path fill-rule="evenodd" clip-rule="evenodd" d="M66.0645 85.7632L67.6326 83.3748H69.4891L67.2348 85.7632H66.0645Z" fill="#5A5A5D"></path><path fill-rule="evenodd" clip-rule="evenodd" d="M77.463 87.8448V89.5189H73.9173V94.491C73.8962 94.8259 74.0052 95.1563 74.2229 95.4174C74.5291 95.6025 74.8897 95.6849 75.2491 95.6518H77.463V97.3259H74.9839C74.5877 97.3491 74.1912 97.2865 73.8232 97.1426C73.4552 96.9988 73.1249 96.7774 72.8565 96.4944C72.3234 95.8677 72.0464 95.0734 72.0781 94.2622V85.4397H73.9058V87.8504L77.463 87.8448Z" fill="#5A5A5D"></path><path d="M91.075 83.4866H89.2646V97.3035H91.075V83.4866Z" fill="#5A5A5D"></path><path fill-rule="evenodd" clip-rule="evenodd" d="M98.0739 99.2788C98.0718 99.1638 98.0948 99.0496 98.1415 98.9438C98.1882 98.838 98.2575 98.743 98.3449 98.665C98.4256 98.5775 98.5271 98.5104 98.6406 98.4696C98.7542 98.4287 98.8763 98.4154 98.9964 98.4306C99.1186 98.4219 99.2414 98.4383 99.3566 98.4787C99.4719 98.519 99.577 98.5825 99.6652 98.665C99.808 98.8384 99.878 99.0576 99.8612 99.2788C99.8734 99.496 99.8038 99.7102 99.6652 99.8815C99.5818 99.9714 99.478 100.041 99.362 100.086C99.2459 100.13 99.1208 100.148 98.9964 100.138C98.8741 100.155 98.7495 100.139 98.6351 100.094C98.5208 100.049 98.4207 99.9759 98.3449 99.8815C98.2575 99.8059 98.1881 99.7129 98.1413 99.6088C98.0945 99.5048 98.0715 99.3922 98.0739 99.2788ZM95.9407 92.5824C95.9305 93.4425 96.2582 94.2742 96.8574 94.9094C97.1593 95.2178 97.5246 95.4615 97.9297 95.6249C98.3349 95.7883 98.7709 95.8677 99.2097 95.858C99.6418 95.8681 100.071 95.7887 100.469 95.625C100.866 95.4614 101.224 95.2174 101.516 94.9094C101.815 94.5985 102.047 94.2319 102.195 93.8319C102.344 93.4318 102.407 93.0067 102.381 92.5824C102.419 92.1495 102.361 91.7137 102.212 91.3039C102.063 90.8941 101.826 90.5196 101.516 90.2051C101.222 89.8997 100.864 89.6582 100.467 89.4965C100.069 89.3349 99.6408 89.2569 99.2097 89.2676C98.7719 89.2572 98.3366 89.3352 97.9316 89.4966C97.5266 89.6581 97.1608 89.8993 96.8574 90.2051C96.5498 90.523 96.3103 90.8968 96.153 91.3049C95.9956 91.7129 95.9235 92.1471 95.9407 92.5824ZM94.0497 92.5824C94.0419 91.8981 94.1998 91.2215 94.5109 90.6069C94.7437 90.0024 95.1257 89.4622 95.6236 89.0333C96.1044 88.5857 96.6625 88.2231 97.2725 87.9618C97.8962 87.7543 98.5503 87.6451 99.2097 87.6382C99.8014 87.6475 100.387 87.7571 100.939 87.9618C101.449 88.0997 101.926 88.3349 102.34 88.6538C102.748 88.9774 103.109 89.3528 103.413 89.7699C103.728 89.7667 104.038 89.6922 104.318 89.5522C104.416 89.4946 104.5 89.4184 104.566 89.3282C104.633 89.2381 104.68 89.1358 104.704 89.0277H104.26V87.6605H105.413V88.9328C105.432 89.1434 105.397 89.3553 105.312 89.5498C105.226 89.7444 105.093 89.9157 104.923 90.0489C104.601 90.2884 104.205 90.4144 103.799 90.406C103.967 90.7134 104.089 91.0421 104.162 91.3826C104.277 91.7823 104.336 92.1953 104.335 92.6103C104.335 93.2987 104.167 93.9775 103.845 94.5913C103.618 95.1828 103.255 95.7169 102.784 96.1538C102.304 96.5898 101.745 96.936 101.135 97.175C100.511 97.3874 99.8589 97.5114 99.1982 97.5433C98.521 97.5082 97.8519 97.3843 97.2091 97.175C96.612 96.9406 96.0691 96.5934 95.6121 96.1538C95.1298 95.7162 94.7503 95.1833 94.4994 94.5913C94.1926 93.9733 94.0349 93.2959 94.0381 92.6103" fill="#5A5A5D"></path><path fill-rule="evenodd" clip-rule="evenodd" d="M109.714 97.3034H107.893V87.8447H109.714V97.3034ZM107.893 85.7018C107.902 85.4744 107.989 85.2564 108.14 85.0824C108.227 85.0002 108.33 84.9361 108.443 84.8938C108.556 84.8516 108.677 84.8322 108.798 84.8369C109.036 84.8382 109.265 84.9291 109.436 85.0904C109.607 85.2517 109.707 85.4708 109.714 85.7018C109.696 85.9362 109.594 86.157 109.426 86.3268C109.257 86.4843 109.032 86.5724 108.798 86.5723C108.555 86.5691 108.322 86.482 108.14 86.3268C108.001 86.144 107.915 85.928 107.893 85.7018Z" fill="#5A5A5D"></path><path fill-rule="evenodd" clip-rule="evenodd" d="M123.955 97.3033H122.128V87.8445H123.955V97.3033ZM121.562 86.6671L123.085 84.301H124.958L122.687 86.6671H121.562Z" fill="#5A5A5D"></path><path fill-rule="evenodd" clip-rule="evenodd" d="M134.517 87.8447V89.5188H133.053C132.489 89.5099 131.93 89.6284 131.421 89.8648C130.895 90.1109 130.453 90.4983 130.147 90.9809C129.83 91.4696 129.669 92.0387 129.686 92.6159C129.666 93.045 129.749 93.4726 129.928 93.8656C130.107 94.2586 130.378 94.6063 130.718 94.8816C131.37 95.4133 132.201 95.6935 133.053 95.6684H134.517V97.3425H132.748C131.945 97.3258 131.157 97.1351 130.441 96.7845C129.674 96.3878 129.02 95.8125 128.539 95.1104C128.123 94.4445 127.876 93.6923 127.82 92.916C127.764 92.1396 127.9 91.3615 128.216 90.6461C128.51 90.0663 128.915 89.5456 129.409 89.1115C129.876 88.6955 130.434 88.3866 131.041 88.2075C131.591 87.9944 132.178 87.8827 132.771 87.8782L134.517 87.8447Z" fill="#5A5A5D"></path><path fill-rule="evenodd" clip-rule="evenodd" d="M138.692 97.3035H136.847V83.4866H138.692V88.6484C138.992 88.326 139.359 88.0691 139.77 87.895C140.226 87.7104 140.717 87.621 141.211 87.6328C143.909 87.6328 145.31 89.0279 145.31 91.779V97.3035H143.517V91.779C143.517 90.1049 142.704 89.2622 141.073 89.2622C140.749 89.2589 140.429 89.3247 140.135 89.4549C139.841 89.5852 139.581 89.7766 139.372 90.0156C139.136 90.2462 138.954 90.5226 138.836 90.8266C138.719 91.1306 138.67 91.4552 138.692 91.779V97.3035Z" fill="#5A5A5D"></path><path fill-rule="evenodd" clip-rule="evenodd" d="M163.8 87.8447V89.5188H162.405C161.819 89.5132 161.239 89.6313 160.704 89.8648C160.208 90.134 159.789 90.5173 159.482 90.9809C159.099 91.592 158.941 92.3104 159.033 93.0195C159.125 93.7286 159.462 94.3867 159.989 94.8871C160.67 95.4237 161.528 95.7032 162.405 95.674H163.8V97.3481H162.042C161.24 97.3261 160.454 97.1357 159.736 96.79C158.974 96.3898 158.324 95.815 157.845 95.1159C157.362 94.3641 157.108 93.4956 157.112 92.6104C157.085 91.931 157.234 91.2558 157.545 90.6461C157.819 90.0648 158.211 89.5429 158.698 89.1115C159.159 88.6886 159.71 88.3686 160.312 88.174C160.862 87.9576 161.449 87.8458 162.042 87.8447H163.8Z" fill="#5A5A5D"></path><path fill-rule="evenodd" clip-rule="evenodd" d="M175.879 97.3034H174.109V91.9797C174.108 91.4598 173.95 90.9515 173.654 90.5177C173.343 90.1122 172.925 89.7959 172.443 89.6025C171.946 89.3671 171.399 89.2504 170.846 89.2621C170.234 89.2617 169.635 89.428 169.116 89.742C168.615 90.0193 168.213 90.4378 167.963 90.9418C167.705 91.4651 167.565 92.036 167.554 92.6159C167.563 93.1834 167.714 93.7403 167.992 94.2398C168.252 94.7133 168.631 95.1162 169.093 95.4116C169.623 95.6982 170.216 95.8553 170.823 95.8692C171.31 95.8567 171.786 95.7322 172.213 95.5062C172.64 95.2801 173.006 94.9588 173.279 94.569V96.6003C172.917 96.8857 172.505 97.105 172.062 97.2476C171.622 97.4729 171.123 97.568 170.627 97.521C169.977 97.5037 169.336 97.3634 168.742 97.1081C168.135 96.8742 167.592 96.5074 167.156 96.0366C166.688 95.5665 166.347 94.9913 166.164 94.3625C165.892 93.7769 165.757 93.1407 165.767 92.4987C165.734 91.623 165.969 90.7574 166.441 90.0099C166.808 89.2501 167.436 88.6368 168.217 88.2744C169.019 87.8322 169.929 87.6085 170.852 87.627C171.563 87.6238 172.27 87.7332 172.945 87.9507C173.53 88.1454 174.07 88.4487 174.536 88.8436C174.964 89.2467 175.298 89.7338 175.516 90.2721C175.76 90.8649 175.884 91.4978 175.879 92.136V97.3034Z" fill="#5A5A5D"></path><path fill-rule="evenodd" clip-rule="evenodd" d="M180.197 92.5768C180.184 93.4362 180.51 94.2681 181.108 94.9038C181.404 95.2076 181.761 95.4488 182.158 95.6121C182.555 95.7754 182.983 95.8572 183.414 95.8524C183.845 95.8536 184.271 95.7701 184.668 95.607C185.064 95.444 185.422 95.2047 185.72 94.9038C186.326 94.2719 186.656 93.4384 186.643 92.5768C186.661 92.1409 186.589 91.7058 186.431 91.2974C186.272 90.8891 186.031 90.5157 185.72 90.1995C185.421 89.9011 185.062 89.6643 184.666 89.5032C184.27 89.3421 183.844 89.2601 183.414 89.262C182.984 89.2565 182.557 89.3369 182.16 89.4982C181.763 89.6595 181.405 89.8982 181.108 90.1995C180.801 90.5178 180.563 90.8918 180.406 91.2999C180.25 91.7079 180.179 92.1419 180.197 92.5768ZM178.329 92.5768C178.314 91.9163 178.44 91.2599 178.7 90.6491C178.96 90.0382 179.348 89.4862 179.839 89.0277C180.336 88.5947 180.896 88.2338 181.5 87.9562C182.12 87.7496 182.77 87.6403 183.425 87.6326C184.089 87.6346 184.748 87.744 185.374 87.9562C185.978 88.211 186.531 88.564 187.012 88.9998C187.499 89.4511 187.882 89.9968 188.136 90.6013C188.417 91.2243 188.563 91.8968 188.562 92.5768C188.561 93.2583 188.415 93.9323 188.136 94.5578C187.877 95.1483 187.494 95.6803 187.012 96.1203C186.552 96.5701 185.997 96.9184 185.386 97.1415C184.756 97.3628 184.095 97.4871 183.425 97.5098C182.769 97.4784 182.12 97.3543 181.5 97.1415C180.887 96.9012 180.324 96.5552 179.839 96.1203C179.379 95.6638 179.001 95.1356 178.721 94.5578C178.453 93.9299 178.32 93.256 178.329 92.5768Z" fill="#5A5A5D"></path><path fill-rule="evenodd" clip-rule="evenodd" d="M202.203 97.3033H200.376V91.7788C200.362 91.0206 200.549 90.2716 200.918 89.6025C201.28 89.0004 201.807 88.5062 202.44 88.1739C203.084 87.7964 203.826 87.603 204.579 87.6158C205.35 87.6035 206.11 87.7966 206.775 88.1739C207.407 88.4979 207.926 88.9948 208.269 89.6025C208.639 90.2711 208.828 91.0201 208.816 91.7788V97.3033H206.977V91.7788C207.007 91.3369 206.896 90.8967 206.66 90.5176C206.472 90.1312 206.163 89.8112 205.778 89.6025C205.421 89.3775 205.004 89.2591 204.579 89.262C204.148 89.2634 203.727 89.3813 203.362 89.6025C203.001 89.8333 202.706 90.1479 202.503 90.5176C202.272 90.8985 202.168 91.3386 202.203 91.7788V97.3033Z" fill="#5A5A5D"></path><path fill-rule="evenodd" clip-rule="evenodd" d="M213.487 97.3035H211.625V83.4866H213.464V88.6484C213.771 88.3335 214.136 88.0779 214.542 87.895C215.007 87.714 215.505 87.6248 216.006 87.6328C218.722 87.6328 220.088 89.0279 220.088 91.779V97.3035H218.312V91.779C218.312 90.1049 217.523 89.2622 215.937 89.2622C215.608 89.2519 215.282 89.3144 214.982 89.445C214.682 89.5755 214.417 89.7707 214.207 90.0156C213.962 90.242 213.769 90.5163 213.642 90.8203C213.515 91.1244 213.456 91.4512 213.469 91.779L213.487 97.3035Z" fill="#5A5A5D"></path><path fill-rule="evenodd" clip-rule="evenodd" d="M232.685 97.3035H230.892V91.9799C230.903 91.4549 230.735 90.9412 230.414 90.5178C230.122 90.1022 229.705 89.7829 229.22 89.6027C228.732 89.3716 228.195 89.255 227.652 89.2622C227.04 89.2582 226.44 89.4248 225.923 89.7422C225.43 90.0216 225.038 90.4403 224.798 90.9419C224.518 91.4577 224.378 92.0335 224.389 92.616C224.38 93.1823 224.521 93.7414 224.798 94.2399C225.065 94.7157 225.452 95.1187 225.923 95.4118C226.436 95.7023 227.017 95.8599 227.612 95.8694C228.106 95.8529 228.591 95.7272 229.027 95.5018C229.464 95.2765 229.842 94.9574 230.131 94.5692V96.6004C229.748 96.8653 229.331 97.0828 228.892 97.2477C228.43 97.4655 227.916 97.5599 227.404 97.5212C226.744 97.4984 226.093 97.3584 225.484 97.1082C224.897 96.8722 224.375 96.5051 223.962 96.0368C223.47 95.5825 223.122 95.0017 222.959 94.3627C222.68 93.7797 222.548 93.1409 222.573 92.4988C222.565 91.6343 222.773 90.7806 223.178 90.01C223.574 89.2743 224.189 88.6699 224.942 88.2745C225.787 87.8348 226.734 87.6119 227.693 87.6272C228.392 87.6322 229.086 87.7413 229.751 87.9509C230.329 88.1571 230.865 88.4592 231.336 88.8437C231.768 89.2331 232.086 89.7259 232.259 90.2723C232.541 90.8589 232.679 91.5006 232.662 92.1473L232.685 97.3035Z" fill="#5A5A5D"></path><path fill-rule="evenodd" clip-rule="evenodd" d="M225.121 86.9295L226.885 84.5522H228.477L230.206 86.9295H228.828L227.652 85.3893L226.511 86.9295H225.121Z" fill="#5A5A5D"></path><path fill-rule="evenodd" clip-rule="evenodd" d="M229.745 85.7632L231.301 83.3748H233.14L230.915 85.7632H229.745Z" fill="#5A5A5D"></path><path fill-rule="evenodd" clip-rule="evenodd" d="M241.091 87.8448V89.5189H237.523V94.491C237.502 94.6639 237.526 94.8389 237.593 95.0005C237.659 95.1621 237.766 95.3053 237.903 95.4174C238.188 95.6065 238.534 95.6897 238.877 95.6518H241.091V97.3259H238.664C238.266 97.3508 237.867 97.289 237.497 97.1451C237.127 97.0012 236.795 96.7789 236.525 96.4944C236.247 96.192 236.035 95.8385 235.901 95.455C235.768 95.0715 235.715 94.6658 235.747 94.2623V85.4397H237.523V87.8504L241.091 87.8448Z" fill="#5A5A5D"></path><path d="M285.946 15.0183C269.469 21.1094 252.078 24.6451 234.432 25.4916C235.311 38.2044 244.035 52.1193 251.172 52.1193C269.257 52.1193 283.791 23.3179 286.86 17.1591C288.032 14.8701 287.135 14.5243 285.946 15.0183Z" fill="url(#paint0_linear_1713_1303)"></path><path d="M244.293 20.1231C235.673 17.159 237.397 2.9641 237.207 2.009C236.345 -1.10334 223.277 9.8804 223.277 17.3401C223.277 20.4525 225.398 21.4405 228.88 21.5393C234.037 21.507 239.181 21.0609 244.259 20.2054C244.379 20.2219 244.362 20.1396 244.293 20.1231Z" fill="url(#paint1_linear_1713_1303)"></path><defs><linearGradient id="paint0_linear_1713_1303" x1="228.233" y1="29.356" x2="290.437" y2="40.8365" gradientUnits="userSpaceOnUse"><stop stop-color="#F9A51A"></stop><stop offset="0.5" stop-color="#FFDC00"></stop><stop offset="1" stop-color="#FFDC00"></stop></linearGradient><linearGradient id="paint1_linear_1713_1303" x1="241.379" y1="24.8163" x2="229.605" y2="-1.61598" gradientUnits="userSpaceOnUse"><stop stop-color="#F9A51A"></stop><stop offset="0.2" stop-color="#FFC10E"></stop><stop offset="0.45" stop-color="#FFDC00"></stop><stop offset="1" stop-color="#FFDC00"></stop></linearGradient></defs></svg>