<svg xmlns="http://www.w3.org/2000/svg" width="501" height="300" viewBox="0 0 501 300" fill="none"><g clip-path="url(#clip0_18_369)"><path d="M294.919 142.918C312.919 142.918 327.673 128.459 327.673 110.459C327.673 92.459 312.919 78 294.919 78C276.919 78 262.165 92.459 262.165 110.459C262.165 128.459 276.919 142.918 294.919 142.918ZM294.919 96.2951C302.591 96.2951 308.788 102.492 308.788 110.164C308.788 117.836 302.591 124.033 294.919 124.033C287.247 124.033 281.05 117.836 281.05 110.164C281.05 102.492 287.247 96.2951 294.919 96.2951Z" fill="#A50064"></path><path d="M294.919 157.082C276.919 157.082 262.165 171.541 262.165 189.541C262.165 207.541 276.919 222 294.919 222C312.919 222 327.673 207.541 327.673 189.541C327.673 171.541 312.919 157.082 294.919 157.082ZM294.919 203.41C287.247 203.41 281.05 197.213 281.05 189.541C281.05 181.869 287.247 175.672 294.919 175.672C302.591 175.672 308.788 181.869 308.788 189.541C308.788 197.213 302.591 203.41 294.919 203.41Z" fill="#A50064"></path><path d="M228.23 157.082C222.624 157.082 217.607 158.852 213.476 162.098C209.345 159.147 204.329 157.082 198.722 157.082C185.148 157.082 174.23 168 174.23 181.574V222.295H193.115V181.279C193.115 178.328 195.476 175.672 198.722 175.672C201.968 175.672 204.329 178.033 204.329 181.279V222.295H222.919V181.279C222.919 178.328 225.279 175.672 228.525 175.672C231.476 175.672 234.132 178.033 234.132 181.279V222.295H252.722V181.279C252.722 168 241.804 157.082 228.23 157.082Z" fill="#A50064"></path><path d="M228.23 77.7049C222.624 77.7049 217.607 79.4754 213.476 82.7213C209.345 79.7705 204.329 77.7049 198.722 77.7049C185.148 77.7049 174.23 88.6229 174.23 102.197V142.918H193.115V101.902C193.115 98.9508 195.476 96.2951 198.722 96.2951C201.968 96.2951 204.329 98.6557 204.329 101.902V142.918H222.919V101.902C222.919 98.9508 225.279 96.2951 228.525 96.2951C231.476 96.2951 234.132 98.6557 234.132 101.902V142.918H253.017V102.197C252.722 88.6229 241.804 77.7049 228.23 77.7049Z" fill="#A50064"></path></g><defs><clipPath id="clip0_18_369"><rect width="180" height="180" fill="white" transform="translate(160.952 60)"></rect></clipPath></defs></svg>