<svg xmlns="http://www.w3.org/2000/svg" width="500" height="300" viewBox="0 0 500 300" fill="none"><path d="M189.717 226.118C189.149 225.728 188.971 224.947 189.362 224.343C189.752 223.775 190.533 223.598 191.137 223.988C191.492 224.237 191.882 224.485 192.308 224.734C195.22 226.509 197.953 227.396 200.19 227.396C202.214 227.396 203.882 226.615 204.912 225.089C204.983 224.982 205.054 224.911 205.054 224.84C205.338 224.343 205.586 223.846 205.728 223.349C206.012 222.32 205.977 221.254 205.551 220.296C205.125 219.266 204.237 218.308 202.888 217.491C202.001 216.959 200.865 216.462 199.515 216.071C196.072 215.112 193.551 213.728 192.166 211.917C190.675 209.893 190.569 207.479 192.166 204.533C193.231 202.58 195.397 201.373 198.166 201.16C200.545 200.982 203.421 201.55 206.332 203.041C206.971 203.361 207.22 204.142 206.9 204.746C206.581 205.385 205.799 205.633 205.196 205.314C202.711 204.036 200.332 203.574 198.379 203.716C196.498 203.858 195.042 204.604 194.438 205.775C193.373 207.728 193.373 209.254 194.261 210.426C195.255 211.775 197.35 212.84 200.225 213.657C201.788 214.083 203.101 214.686 204.202 215.361C206.012 216.462 207.22 217.846 207.859 219.337C208.533 220.864 208.604 222.533 208.143 224.095C207.93 224.805 207.61 225.55 207.184 226.225C207.078 226.367 207.007 226.509 206.971 226.58C205.444 228.852 203.03 229.988 200.119 229.988C197.421 229.988 194.261 228.994 190.924 226.97C190.604 226.686 190.178 226.438 189.717 226.118Z" fill="#EA501F"></path><path d="M212.403 202.367C212.403 201.692 212.971 201.16 213.681 201.16C214.391 201.16 214.959 201.692 214.959 202.367V228.746C214.959 229.42 214.391 229.953 213.681 229.953C212.971 229.953 212.403 229.42 212.403 228.746V202.367Z" fill="#EA501F"></path><path d="M215.03 218.805C214.569 219.337 213.788 219.444 213.22 218.982C212.687 218.521 212.581 217.74 213.042 217.172C214.995 214.793 217.196 213.337 219.362 212.698C220.924 212.237 222.45 212.201 223.764 212.556C225.149 212.947 226.356 213.728 227.208 214.935C228.024 216.071 228.486 217.527 228.486 219.266V228.71C228.486 229.42 227.918 229.988 227.208 229.988C226.498 229.988 225.93 229.42 225.93 228.71V219.266C225.93 218.059 225.646 217.101 225.149 216.391C224.652 215.716 223.977 215.254 223.125 215.006C222.237 214.757 221.208 214.793 220.107 215.112C218.403 215.645 216.628 216.852 215.03 218.805Z" fill="#EA501F"></path><path d="M241.018 212.308C243.468 212.308 245.669 213.302 247.267 214.899C248.865 216.497 249.859 218.698 249.859 221.148C249.859 223.598 248.865 225.799 247.267 227.396C245.669 228.994 243.468 229.988 241.018 229.988C238.569 229.988 236.368 228.994 234.77 227.396C233.172 225.799 232.178 223.598 232.178 221.148C232.178 218.698 233.172 216.497 234.77 214.899C236.368 213.302 238.604 212.308 241.018 212.308ZM245.492 216.675C244.356 215.538 242.758 214.828 241.018 214.828C239.279 214.828 237.717 215.538 236.545 216.675C235.409 217.811 234.699 219.408 234.699 221.148C234.699 222.888 235.409 224.485 236.545 225.621C237.681 226.757 239.279 227.467 241.018 227.467C242.758 227.467 244.32 226.757 245.492 225.621C246.628 224.485 247.338 222.888 247.338 221.148C247.338 219.408 246.628 217.811 245.492 216.675Z" fill="#EA501F"></path><path d="M253.48 213.586C253.48 212.876 254.048 212.308 254.758 212.308C255.468 212.308 256.036 212.876 256.036 213.586V215.183C256.143 215.077 256.214 214.97 256.32 214.899C257.918 213.302 260.119 212.308 262.569 212.308C265.018 212.308 267.22 213.302 268.817 214.899C270.415 216.497 271.409 218.698 271.409 221.148C271.409 223.598 270.415 225.799 268.817 227.396C267.22 228.994 265.018 229.988 262.569 229.988C260.119 229.988 257.918 228.994 256.32 227.396C256.214 227.29 256.143 227.183 256.036 227.112V238.722C256.036 239.432 255.468 240 254.758 240C254.048 240 253.48 239.432 253.48 238.722V213.586ZM267.007 216.675C265.871 215.538 264.273 214.828 262.533 214.828C260.794 214.828 259.231 215.538 258.06 216.675C256.924 217.811 256.214 219.408 256.214 221.148C256.214 222.888 256.924 224.485 258.06 225.621C259.196 226.757 260.794 227.467 262.533 227.467C264.273 227.467 265.835 226.757 267.007 225.621C268.143 224.485 268.853 222.888 268.853 221.148C268.853 219.408 268.143 217.811 267.007 216.675Z" fill="#EA501F"></path><path d="M283.409 212.308C285.575 212.308 287.563 213.16 289.018 214.651C290.226 215.858 290.723 217.065 291.149 218.343C292.249 221.929 290.155 221.787 289.515 221.787H277.764C277.871 222.639 278.084 223.42 278.332 224.13C278.794 225.231 279.468 226.047 280.32 226.615C281.208 227.183 282.344 227.467 283.657 227.467C285.078 227.467 286.746 227.077 288.592 226.296C289.231 226.012 289.977 226.331 290.261 226.97C290.545 227.609 290.226 228.355 289.586 228.639C287.456 229.527 285.468 229.953 283.693 229.988C281.882 230.024 280.285 229.598 278.971 228.746C277.657 227.893 276.521 226.722 275.989 225.089C274.782 221.503 274.746 217.953 277.799 214.651C279.22 213.124 281.243 212.308 283.409 212.308ZM287.243 216.462C286.214 215.467 284.865 214.864 283.409 214.864C281.953 214.864 280.604 215.467 279.575 216.462C278.829 217.207 278.226 218.13 277.906 219.195H288.947C288.557 218.13 287.989 217.207 287.243 216.462Z" fill="#EA501F"></path><path d="M302.793 212.308C304.959 212.308 306.947 213.16 308.403 214.651C309.61 215.858 310.107 217.065 310.533 218.343C311.634 221.929 309.539 221.787 308.9 221.787H297.149C297.255 222.639 297.468 223.42 297.717 224.13C298.178 225.231 298.853 226.047 299.705 226.615C300.592 227.183 301.728 227.467 303.042 227.467C304.462 227.467 306.131 227.077 307.977 226.296C308.616 226.012 309.362 226.331 309.646 226.97C309.93 227.609 309.61 228.355 308.971 228.639C306.841 229.527 304.853 229.953 303.078 229.988C301.267 230.024 299.669 229.598 298.356 228.746C297.042 227.893 295.906 226.722 295.373 225.089C294.166 221.503 294.131 217.953 297.184 214.651C298.604 213.124 300.628 212.308 302.793 212.308ZM306.628 216.462C305.598 215.467 304.249 214.864 302.793 214.864C301.338 214.864 299.989 215.467 298.959 216.462C298.214 217.207 297.61 218.13 297.291 219.195H308.332C307.941 218.13 307.373 217.207 306.628 216.462Z" fill="#EA501F"></path><path d="M198.699 96.8876H225.433C226.249 87.8343 228.77 79.7041 232.391 73.4201C237.184 65.1124 244.001 60 251.705 60C259.409 60 266.19 65.1479 271.018 73.4201C274.64 79.6686 277.16 87.8343 277.977 96.8876H304.675C307.835 96.8876 310.675 99.4793 310.427 102.639L305.066 177.444C304.391 186.817 298.498 192.178 289.942 192.178H213.468C203.953 192.178 198.912 185.538 198.344 177.444L192.947 102.675C192.734 99.5148 195.539 96.8876 198.699 96.8876ZM232.107 96.8876H271.231C270.45 89.0414 268.285 82.0828 265.196 76.7574C261.646 70.5444 256.817 66.6746 251.705 66.6746C246.557 66.6746 241.764 70.5444 238.143 76.7929C235.054 82.0828 232.924 89.0769 232.107 96.8876Z" fill="#EA501F"></path><path d="M232.285 165.941C231.042 165.089 230.723 163.42 231.575 162.178C232.427 160.935 234.095 160.615 235.338 161.467C236.119 162 236.936 162.533 237.823 163.065C244.072 166.864 249.823 168.746 254.616 168.746C258.947 168.746 262.462 167.112 264.699 163.811C264.841 163.562 264.983 163.42 265.018 163.314C265.657 162.284 266.119 161.183 266.439 160.118C267.078 157.917 266.971 155.645 266.084 153.586C265.125 151.42 263.279 149.325 260.403 147.586C258.486 146.414 256.107 145.385 253.231 144.604C245.918 142.544 240.521 139.633 237.61 135.728C234.415 131.432 234.166 126.249 237.575 119.965C239.847 115.811 244.498 113.219 250.391 112.757C255.468 112.367 261.575 113.574 267.788 116.734C269.137 117.408 269.669 119.041 268.959 120.391C268.249 121.74 266.652 122.272 265.302 121.562C260.013 118.864 254.971 117.834 250.782 118.154C246.77 118.473 243.717 120.036 242.368 122.521C240.095 126.675 240.131 129.941 241.977 132.426C244.107 135.302 248.545 137.538 254.723 139.278C258.06 140.237 260.9 141.444 263.243 142.864C267.113 145.207 269.705 148.154 271.089 151.349C272.51 154.651 272.687 158.13 271.728 161.538C271.302 163.065 270.628 164.592 269.705 166.083C269.492 166.402 269.35 166.651 269.243 166.828C265.941 171.692 260.865 174.107 254.687 174.142C248.9 174.142 242.155 172.012 235.054 167.68C234.166 167.183 233.243 166.615 232.285 165.941Z" fill="white"></path></svg>