<svg xmlns="http://www.w3.org/2000/svg" width="501" height="301" viewBox="0 0 501 301" fill="none"><path fill-rule="evenodd" clip-rule="evenodd" d="M257.419 235.864L159.626 137.721C150.431 128.493 155.721 112.729 168.621 110.916L328.741 88.4054C341.444 86.6183 350.87 99.9113 344.983 111.308L282.654 231.962C277.738 241.479 264.979 243.452 257.419 235.864Z" fill="#FE9196"></path><path d="M228.659 63.1272C214.616 55.1895 197.467 66.407 199.111 82.4535L201.553 106.286L284.415 94.6371L228.659 63.1272ZM332.59 157.733C341.423 149.568 342.455 136.781 336.637 127.464L310.412 178.231L332.59 157.733ZM212.824 216.293C214.834 235.907 238.378 244.806 252.858 231.423L252.929 231.358L209.948 188.224L212.824 216.293Z" fill="#FF5A61"></path><path d="M318.1 163.35L336.637 127.464C334.613 124.222 331.767 121.398 328.123 119.338L284.415 94.6371L201.553 106.286L209.948 188.224L252.929 231.358L310.412 178.231L318.1 163.35Z" fill="#FA2F43"></path><path d="M235.628 125.111H233.964C233.303 125.111 232.766 125.648 232.766 126.309V129.402C232.766 128.675 233.574 127.839 234.796 127.839H235.628C236.289 127.839 236.826 127.304 236.826 126.641V126.31C236.826 125.648 236.289 125.111 235.628 125.111Z" fill="#EE0033"></path><path d="M252.649 134.309C252.649 134.696 252.546 135.169 251.748 135.169H245.974C244.506 135.169 243.315 135.84 243.315 136.669V135.169C243.35 134.198 243.315 133.392 244.148 132.643C245.259 131.643 246.924 131.671 248 131.671C249.145 131.671 250.463 131.727 251.47 132.338C252.059 132.698 252.649 133.392 252.649 134.309ZM296.547 134.309C296.547 134.696 296.443 135.169 295.644 135.169H289.87C288.402 135.169 287.213 135.84 287.213 136.669V135.169C287.247 134.198 287.213 133.392 288.044 132.643C289.155 131.643 290.821 131.671 291.897 131.671C293.042 131.671 294.36 131.727 295.367 132.338C295.956 132.698 296.547 133.392 296.547 134.309ZM307.097 126.974C307.097 126.313 306.56 125.775 305.898 125.775H304.235C303.573 125.775 303.037 126.313 303.037 126.974V139.14C303.037 140.999 303.695 142.082 304.876 142.859C306.021 143.609 307.34 143.942 309.803 143.942H311.139C311.8 143.942 312.337 143.405 312.337 142.744V141.443H311.329C310.602 141.443 309.075 141.415 308.172 140.805C306.993 140.027 307.097 138.639 307.097 137.641V126.974ZM281.105 141.443C280.376 141.443 278.849 141.415 277.947 140.805C276.767 140.027 276.871 138.639 276.871 137.641V131.728H280.808C281.471 131.728 282.006 131.191 282.006 130.529V129.229H276.871V126.974C276.871 126.313 276.334 125.776 275.673 125.776H274.01C273.349 125.776 272.812 126.313 272.812 126.974V129.229H264.345V126.974C264.345 126.313 263.808 125.776 263.146 125.776H261.483C260.822 125.776 260.285 126.313 260.285 126.974V129.229H257.751V130.529C257.751 131.191 258.288 131.728 258.949 131.728H260.285V139.14C260.285 141 260.943 142.083 262.124 142.859C263.269 143.609 264.589 143.942 267.052 143.942H268.387C269.048 143.942 269.585 143.405 269.585 142.744V141.443H268.579C267.85 141.443 266.323 141.415 265.421 140.806C264.242 140.028 264.345 138.64 264.345 137.641V131.728H272.812V139.14C272.812 141 273.47 142.083 274.651 142.86C275.796 143.61 277.114 143.943 279.579 143.943H280.914C281.575 143.943 282.111 143.406 282.111 142.744V141.444H281.105V141.443ZM256.259 142.744V141.443H247.271C245.78 141.443 244.078 141.277 243.558 139.694C243.419 139.251 243.315 138.307 243.315 137.667H254.003C254.733 137.667 255.426 137.556 255.981 137.113C256.745 136.501 256.85 135.64 256.85 134.892C256.85 133.032 256.397 131.199 254.246 130.116C252.546 129.256 250.324 129.172 248.174 129.172C246.438 129.172 243.316 129.172 241.303 130.562C239.291 131.949 239.117 133.975 239.117 136.723C239.117 138.667 239.221 140.694 240.435 142.082C241.962 143.803 244.183 143.942 246.057 143.942H255.061C255.722 143.942 256.259 143.405 256.259 142.744ZM300.155 142.744V141.443H291.167C289.676 141.443 287.976 141.277 287.455 139.694C287.316 139.251 287.213 138.307 287.213 137.667H297.9C298.628 137.667 299.322 137.556 299.878 137.113C300.642 136.501 300.746 135.64 300.746 134.892C300.746 133.032 300.294 131.199 298.143 130.116C296.443 129.256 294.223 129.172 292.07 129.172C290.334 129.172 287.213 129.172 285.201 130.562C283.187 131.949 283.014 133.975 283.014 136.723C283.014 138.667 283.118 140.694 284.332 142.082C285.859 143.803 288.08 143.942 289.954 143.942H298.957C299.619 143.942 300.155 143.405 300.155 142.744ZM235.628 129.228H233.964C233.303 129.228 232.766 129.764 232.766 130.427V142.744C232.766 143.406 233.303 143.942 233.964 143.942H235.628C236.289 143.942 236.826 143.406 236.826 142.744V130.427C236.826 129.764 236.289 129.228 235.628 129.228ZM229.646 129.228C228.598 129.228 227.718 129.857 227.292 130.757L222.875 140.138C222.771 140.36 222.562 140.721 222.39 140.721C222.216 140.721 222.008 140.36 221.903 140.138L217.457 130.757C217.031 129.857 216.151 129.228 215.102 129.228H212.534L219.543 142.803C220.237 144.136 221.66 144.109 222.389 144.109C223.395 144.109 224.574 144.053 225.199 142.803L232.209 129.228H229.646ZM240.713 166.647C240.162 168.479 238.753 169.51 236.315 169.626C233.933 169.74 231.537 169.684 229.146 169.701C229.12 169.701 229.093 169.68 229.016 169.647V169.284C229.016 165.551 229.015 161.817 229.016 158.083C229.016 157.123 229.394 156.832 230.649 156.831C232.1 156.828 233.551 156.813 235 156.838C235.722 156.849 236.455 156.887 237.159 157.001C239.124 157.316 240.249 158.319 240.691 159.789C240.872 160.39 240.994 161.01 241.031 161.625C241.132 163.305 241.212 164.989 240.713 166.647ZM255.027 165.499C255.314 164.751 255.964 164.247 256.976 164.236C260.194 164.201 263.41 164.223 266.711 164.223V165.385C266.711 166.422 266.719 167.459 266.708 168.497C266.699 169.405 266.284 169.724 265.116 169.726C262.651 169.729 260.186 169.727 257.723 169.726C255.906 169.726 255.124 169.224 254.866 167.839C254.721 167.055 254.734 166.266 255.027 165.499ZM272.246 159.45C272.245 158.986 272.22 158.518 272.132 158.059C271.865 156.64 271.124 155.41 269.588 154.539C268.237 153.772 266.681 153.545 265.046 153.545C260.498 153.545 255.951 153.545 251.405 153.545H250.929C250.929 155.368 252.405 156.846 254.228 156.846C255.709 156.846 257.363 156.846 258.441 156.846C260.091 156.846 261.741 156.833 263.39 156.854C264.512 156.869 265.541 157.097 266.173 157.897C266.911 158.831 266.673 159.866 266.708 160.906H266.077C262.316 160.911 258.555 160.881 254.794 160.932C252.682 160.961 251.056 161.73 250.056 163.205C249.33 164.274 249.097 165.434 249.066 166.628C249.033 167.96 249.153 169.272 249.83 170.522C250.58 171.904 252.267 173.003 254.775 172.966V172.976H268.848V172.968C270.224 172.942 271.505 172.284 271.921 171.265C272.143 170.719 272.233 170.12 272.237 169.545C272.265 166.18 272.255 162.815 272.246 159.45ZM246.101 158.455C245.378 156.511 243.956 155.008 241.482 154.199C240.011 153.718 238.455 153.543 236.872 153.536C233.815 153.521 230.758 153.528 227.702 153.533C227.318 153.534 226.931 153.563 226.551 153.609C224.979 153.799 223.929 154.539 223.612 155.728C223.498 156.156 223.473 156.604 223.472 157.043C223.463 162.199 223.466 167.354 223.466 172.509V179.24H224.363C226.916 179.24 228.986 177.17 228.986 174.617V172.961C231.687 172.962 234.389 172.961 237.09 172.957C237.655 172.956 238.221 172.947 238.783 172.888C242.357 172.512 244.799 171.07 245.943 168.421C246.481 167.178 246.713 165.894 246.793 164.592C246.921 162.524 246.848 160.465 246.101 158.455ZM273.289 153.494H279.071L287.143 168.47L293.585 157.262C294.924 154.931 297.406 153.494 300.096 153.494H301.405L287.917 176.627C286.955 178.276 285.19 179.289 283.283 179.289H280.667L284.56 172.912L273.289 153.494Z" fill="#FFFEFF"></path></svg>