<svg xmlns="http://www.w3.org/2000/svg" width="128" height="34" viewBox="0 0 128 34" fill="none"><g clip-path="url(#clip0_18_338)"><path fill-rule="evenodd" clip-rule="evenodd" d="M0.760022 8.98C2.22325e-05 7.64 -0.199978 6.06 0.210022 4.57C0.630022 3.09 1.62002 1.83 2.97002 1.1C3.23002 0.960001 3.48002 0.820001 3.73002 0.680001C6.35002 -0.759999 9.64002 0.150001 11.15 2.74C14.09 7.77 18.37 15.09 18.37 15.09C18.37 15.09 22.65 7.76 25.59 2.73C26.31 1.5 27.48 0.610001 28.86 0.250001C30.24 -0.109999 31.7 0.0900006 32.93 0.810001C33.23 0.980001 33.52 1.16 33.82 1.33C36.48 2.89 37.39 6.3 35.87 8.98C32.67 14.62 27.31 24.07 23.38 31.01C22.36 32.8 20.47 33.91 18.41 33.92C16.35 33.92 14.45 32.83 13.42 31.04C9.45002 24.13 4.05002 14.71 0.760022 8.98Z" fill="#ED2132"></path><path fill-rule="evenodd" clip-rule="evenodd" d="M10.83 2.17C10.83 2.17 9.48997 0.809998 7.04997 0.809998C4.60997 0.809998 2.16997 3.64 3.91997 6.69C5.67997 9.74 8.32997 14.26 9.08997 15.41C9.83997 16.56 11.17 17.89 13.76 17.89C16.35 17.89 18.38 15.1 18.38 15.1L10.83 2.17Z" fill="#A02C22"></path><path fill-rule="evenodd" clip-rule="evenodd" d="M47.99 24.87H56.87C57.91 24.87 58.75 24.03 58.75 22.99C58.75 21.95 57.91 21.11 56.87 21.11H47.99V16.56H56.91C57.95 16.56 58.79 15.72 58.79 14.68C58.79 13.64 57.95 12.8 56.91 12.8H46.12C45.08 12.8 44.24 13.64 44.24 14.68V31.3C44.24 32.34 45.08 33.18 46.12 33.18H56.88C57.92 33.18 58.76 32.34 58.76 31.3C58.76 30.26 57.92 29.42 56.88 29.42H48V24.87H47.99ZM64.87 16.56V31.3C64.87 32.34 65.71 33.18 66.75 33.18C67.79 33.18 68.63 32.34 68.63 31.3V16.56H72.06C73.1 16.56 73.94 15.72 73.94 14.68C73.94 13.64 73.1 12.8 72.06 12.8H61.34C60.3 12.8 59.46 13.64 59.46 14.68C59.46 15.72 60.3 16.56 61.34 16.56H64.88H64.87ZM37.29 14.68V31.3C37.29 32.34 38.13 33.18 39.17 33.18C40.21 33.18 41.05 32.34 41.05 31.3V14.69C41.05 13.65 40.21 12.81 39.17 12.81C38.13 12.81 37.29 13.65 37.29 14.69V14.68Z" fill="#ED2132"></path><path fill-rule="evenodd" clip-rule="evenodd" d="M85.02 29.44L87.14 33.18C87.14 33.18 85.64 33.34 84.54 33.37C81.04 33.46 73.69 31.28 73.69 22.99C73.69 14.7 81.57 12.65 84.68 12.65C87.79 12.65 95.61 14.97 95.61 22.99C95.61 28.07 92.55 30.39 92.55 30.39L94.12 32.99H89.75L84.3 23.47H88.58L90.11 26.06C90.11 26.06 90.96 25.05 90.96 22.99C90.96 20.93 89.34 16.61 84.78 16.61C80.22 16.61 78.46 20.33 78.46 22.99C78.46 29.6 85.04 29.44 85.04 29.44H85.02Z" fill="#1E427E"></path><path fill-rule="evenodd" clip-rule="evenodd" d="M97.69 13.03H107.04C110.4 13.03 114.99 15.18 114.99 20.28C114.99 25.38 110.88 26.74 110.88 26.74L115.42 33.04H110.32L102.77 22.05H107.74L108.6 23.34C108.6 23.34 110.33 22.59 110.33 20.34C110.33 18.09 108.33 16.8 106.35 16.8H102.29V33H97.67L97.7 13.02L97.69 13.03Z" fill="#1E427E"></path><path d="M120.43 4.39999H115.42V5.67999H120.43V4.39999Z" fill="#414141"></path><path d="M118.65 5.03999H117.2V10.18H118.65V5.03999Z" fill="#414141"></path><path fill-rule="evenodd" clip-rule="evenodd" d="M121.15 4.39999H122.36L124.24 7.60999L126.17 4.39999H127.4V10.18H126.05V7.05999L124.66 9.28999H123.86L122.52 7.04999V10.18H121.14L121.15 4.39999Z" fill="#414141"></path></g><defs><clipPath id="clip0_18_338"><rect width="127.4" height="33.92" fill="white"></rect></clipPath></defs></svg>